<svg xmlns="http://www.w3.org/2000/svg" xmlns:xlink="http://www.w3.org/1999/xlink" width="2240" zoomAndPan="magnify" viewBox="0 0 1680 944.999993" height="1260" preserveAspectRatio="xMidYMid meet" version="1.0"><defs><filter x="0%" y="0%" width="100%" height="100%" id="222ec55b1d"><feColorMatrix values="0 0 0 0 1 0 0 0 0 1 0 0 0 0 1 0 0 0 1 0" color-interpolation-filters="sRGB"/></filter><mask id="e706ac6cda"><g filter="url(#222ec55b1d)"><rect x="-168" width="2016" fill="#000000" y="-94.499999" height="1133.999992" fill-opacity="0.7176"/></g></mask><clipPath id="2129b2ce60"><path d="M 0 50 L 610 50 L 610 566 L 0 566 Z M 0 50 " clip-rule="nonzero"/></clipPath><clipPath id="e74177da23"><path d="M -228.101562 -7.726562 L 646.011719 685.914062 L 182.664062 1269.820312 L -691.449219 576.183594 Z M -228.101562 -7.726562 " clip-rule="nonzero"/></clipPath><clipPath id="03810b6b6b"><path d="M 526.457031 632.640625 C 474.148438 572.894531 419.441406 514.382812 352.867188 470.101562 C 288.53125 427.308594 209.769531 412.390625 147.441406 366.351562 C 84.238281 319.617188 31.125 259.804688 -17.527344 198.6875 C -99.390625 96.121094 -201.234375 61.460938 -274.574219 50.839844 L -690.328125 574.765625 L 183.785156 1268.402344 L 609.386719 732.066406 C 583.496094 697.558594 554.609375 664.664062 526.457031 632.640625 " clip-rule="nonzero"/></clipPath><clipPath id="91c4f2426a"><rect x="0" width="640" y="0" height="566"/></clipPath></defs><g mask="url(#e706ac6cda)"><g transform="matrix(1, 0, 0, 1, 0, 379)"><g clip-path="url(#91c4f2426a)"><g clip-path="url(#2129b2ce60)"><g clip-path="url(#e74177da23)"><g clip-path="url(#03810b6b6b)"><path fill="#f8c44c" d="M -235.039062 1.015625 L 639.074219 694.652344 L 184.050781 1268.070312 L -690.0625 574.433594 Z M -235.039062 1.015625 " fill-opacity="1" fill-rule="nonzero"/></g></g></g></g></g></g></svg>