<svg xmlns="http://www.w3.org/2000/svg" xmlns:xlink="http://www.w3.org/1999/xlink" zoomAndPan="magnify" preserveAspectRatio="xMidYMid meet" version="1.0" viewBox="770.45 259.13 138.76 146.25"><defs><clipPath id="e5480040ae"><path d="M 770.449219 259.128906 L 909.199219 259.128906 L 909.199219 405.378906 L 770.449219 405.378906 Z M 770.449219 259.128906 " clip-rule="nonzero"/></clipPath></defs><path fill="#ffffff" d="M 839.828125 295.332031 C 824.5 295.332031 812.078125 308.414062 812.078125 324.554688 C 812.078125 340.695312 824.5 353.78125 839.828125 353.78125 C 855.15625 353.78125 867.578125 340.695312 867.578125 324.554688 C 867.578125 308.414062 855.15625 295.332031 839.828125 295.332031 " fill-opacity="1" fill-rule="nonzero"/><g clip-path="url(#e5480040ae)"><path fill="#ffffff" d="M 885.917969 382.695312 C 879.773438 367.652344 866.871094 358.242188 839.785156 358.242188 C 812.738281 358.242188 799.835938 367.628906 793.679688 382.636719 C 781.152344 369.902344 773.359375 352.039062 773.359375 332.253906 C 773.359375 293.59375 803.117188 262.253906 839.828125 262.253906 C 876.539062 262.253906 906.300781 293.59375 906.300781 332.253906 C 906.300781 352.070312 898.480469 369.960938 885.917969 382.695312 Z M 839.828125 259.195312 C 801.511719 259.195312 770.449219 291.90625 770.449219 332.253906 C 770.449219 353.359375 778.945312 372.375 792.535156 385.714844 C 804.925781 397.875 821.550781 405.316406 839.828125 405.316406 C 858.074219 405.316406 874.671875 397.902344 887.058594 385.773438 C 900.683594 372.433594 909.207031 353.394531 909.207031 332.253906 C 909.207031 291.90625 878.144531 259.195312 839.828125 259.195312 " fill-opacity="1" fill-rule="nonzero"/></g></svg>