<svg xmlns="http://www.w3.org/2000/svg" xmlns:xlink="http://www.w3.org/1999/xlink" width="2240" zoomAndPan="magnify" viewBox="0 0 1680 944.999993" height="1260" preserveAspectRatio="xMidYMid meet" version="1.0"><defs><filter x="0%" y="0%" width="100%" height="100%" id="9432b3edf9"><feColorMatrix values="0 0 0 0 1 0 0 0 0 1 0 0 0 0 1 0 0 0 1 0" color-interpolation-filters="sRGB"/></filter><mask id="5bcd46aa0f"><g filter="url(#9432b3edf9)"><rect x="-168" width="2016" fill="#000000" y="-94.499999" height="1133.999992" fill-opacity="0.7176"/></g></mask><clipPath id="b76169506f"><path d="M 52 0 L 1010 0 L 1010 945 L 52 945 Z M 52 0 " clip-rule="nonzero"/></clipPath><clipPath id="1ffb6faf7a"><path d="M -9.949219 920.941406 L 354.28125 -120.304688 L 1049.835938 123 L 685.605469 1164.25 Z M -9.949219 920.941406 " clip-rule="nonzero"/></clipPath><clipPath id="cea63a9b06"><path d="M 343.308594 8.617188 C 304.484375 76.839844 267.585938 146.910156 247.828125 223.4375 C 228.734375 297.398438 240.347656 375.785156 217.570312 448.921875 C 194.425781 523.101562 155.800781 592.097656 114.507812 657.355469 C 45.277344 767.066406 45.941406 873.414062 59.8125 945.347656 L 683.917969 1163.660156 L 1048.148438 122.410156 L 409.257812 -101.074219 C 385.433594 -65.703125 364.085938 -28.058594 343.308594 8.617188 " clip-rule="nonzero"/></clipPath><clipPath id="598e3c7718"><rect x="0" width="1010" y="0" height="945"/></clipPath></defs><g mask="url(#5bcd46aa0f)"><g transform="matrix(1, 0, 0, 1, 670, -0.000000000000049249)"><g clip-path="url(#598e3c7718)"><g clip-path="url(#b76169506f)"><g clip-path="url(#1ffb6faf7a)"><g clip-path="url(#cea63a9b06)"><path fill="#f8c44c" d="M 0.460938 924.585938 L 364.691406 -116.664062 L 1047.753906 122.273438 L 683.519531 1163.519531 Z M 0.460938 924.585938 " fill-opacity="1" fill-rule="nonzero"/></g></g></g></g></g></g></svg>