<svg xmlns="http://www.w3.org/2000/svg" xmlns:xlink="http://www.w3.org/1999/xlink" zoomAndPan="magnify" preserveAspectRatio="xMidYMid meet" version="1.0" viewBox="-166.8 -94.5 2001.6 1134"><defs><filter x="0%" y="0%" width="100%" height="100%" id="26fe52ed93"><feColorMatrix values="0 0 0 0 1 0 0 0 0 1 0 0 0 0 1 0 0 0 1 0" color-interpolation-filters="sRGB"/></filter><mask id="177a643d9d"><g filter="url(#26fe52ed93)"><rect x="-166.8" width="2001.6" fill="#000000" y="-94.499999" height="1133.999992" fill-opacity="0.549"/></g></mask><clipPath id="47de3d4ade"><path d="M 61 68 L 918 68 L 918 689 L 61 689 Z M 61 68 " clip-rule="nonzero"/></clipPath><clipPath id="d48fc9a1ce"><path d="M 983.695312 585.46875 L 97.425781 733.214844 L -0.496094 145.820312 L 885.773438 -1.925781 Z M 983.695312 585.46875 " clip-rule="nonzero"/></clipPath><clipPath id="b8b63c95d3"><path d="M 983.695312 585.46875 L 97.425781 733.214844 L -0.496094 145.820312 L 885.773438 -1.925781 Z M 983.695312 585.46875 " clip-rule="nonzero"/></clipPath><clipPath id="fd3569be69"><rect x="0" width="982" y="0" height="734"/></clipPath></defs><g mask="url(#177a643d9d)"><g transform="matrix(1, 0, 0, 1, 434, 182)"><g clip-path="url(#fd3569be69)"><g clip-path="url(#47de3d4ade)"><g clip-path="url(#d48fc9a1ce)"><g clip-path="url(#b8b63c95d3)"><path fill="#f4c01e" d="M 767.492188 361.40625 C 751.707031 364.238281 735.695312 365.714844 719.648438 365.8125 C 694.921875 366.164062 670.421875 370.25 646.886719 377.742188 C 625.28125 384.917969 605.441406 395.5625 586.214844 407.496094 C 572.199219 416.179688 564.257812 429.207031 560.046875 444.390625 C 554.742188 463.722656 550.242188 483.117188 545.96875 502.675781 C 541.984375 520.398438 539.636719 538.441406 533.144531 555.394531 C 524.433594 579.261719 509.742188 600.554688 490.515625 617.246094 C 476.273438 629.339844 462.480469 641.757812 448.269531 654.042969 C 438.046875 662.890625 425.957031 668.871094 413.480469 673.730469 C 382.9375 685.566406 351.683594 690.773438 318.757812 687.140625 C 279.980469 682.890625 241.652344 675.398438 203.964844 664.621094 C 176.054688 656.578125 151.230469 642.070312 127.628906 625.375 C 114.640625 616.433594 102.773438 605.914062 92.449219 593.949219 C 80.875 580.40625 72.449219 564.355469 68.363281 546.984375 C 63.859375 528.296875 60.160156 509.671875 62.699219 490.40625 C 67.550781 452.898438 83.011719 420.765625 113.941406 398.152344 C 125.578125 389.46875 138.921875 382.683594 152.136719 376.3125 C 181.300781 362.128906 207.921875 343.410156 231.101562 320.703125 C 248.6875 303.6875 262.15625 283.390625 275.144531 262.578125 C 289.195312 239.804688 302.601562 216.742188 317.773438 194.773438 C 339.667969 163.15625 364.519531 133.820312 394.839844 109.921875 C 412.199219 96.316406 430.429688 84.351562 451.234375 77.113281 C 487.40625 64.539062 523 65.152344 557.082031 84.066406 C 576.28125 94.550781 594.835938 105.941406 613.675781 116.683594 C 630.589844 126.558594 647.472656 136.242188 666.445312 141.808594 C 687.796875 148.5625 710.558594 149.527344 732.390625 144.898438 C 748.820312 141.167969 765.125 136.664062 781.296875 132.578125 C 799.398438 128.171875 817.726562 125.117188 836.535156 126.148438 C 869.910156 127.722656 892.613281 144.964844 906.828125 174.332031 C 919.660156 201.355469 920.210938 229.628906 914.070312 258.222656 C 911.050781 272.214844 905.746094 285.597656 898.449219 297.722656 C 888.324219 314.289062 873.5 325.289062 856.523438 334.070312 C 837.714844 343.75 817.683594 349.667969 797.265625 354.460938 Z M 767.492188 361.40625 " fill-opacity="1" fill-rule="nonzero"/></g></g></g></g></g></g></svg>