<svg xmlns="http://www.w3.org/2000/svg" xmlns:xlink="http://www.w3.org/1999/xlink" zoomAndPan="magnify" preserveAspectRatio="xMidYMid meet" version="1.0" viewBox="778.05 426.38 111.75 136.5"><defs><clipPath id="9f718531a1"><path d="M 790 438 L 889.800781 438 L 889.800781 562.882812 L 790 562.882812 Z M 790 438 " clip-rule="nonzero"/></clipPath><clipPath id="a14a8cc32d"><path d="M 778.050781 426.382812 L 884 426.382812 L 884 557 L 778.050781 557 Z M 778.050781 426.382812 " clip-rule="nonzero"/></clipPath></defs><g clip-path="url(#9f718531a1)"><path fill="#000000" d="M 790.464844 451.203125 C 790.464844 444.347656 796.023438 438.792969 802.882812 438.792969 L 877.382812 438.792969 C 884.238281 438.792969 889.800781 444.347656 889.800781 451.203125 L 889.800781 550.472656 C 889.800781 557.324219 884.238281 562.882812 877.382812 562.882812 L 802.882812 562.882812 C 796.023438 562.882812 790.464844 557.324219 790.464844 550.472656 Z M 790.464844 451.203125 " fill-opacity="1" fill-rule="nonzero"/></g><g clip-path="url(#a14a8cc32d)"><path fill="#ffffff" d="M 778.050781 441.894531 C 778.050781 433.328125 784.996094 426.382812 793.570312 426.382812 L 868.070312 426.382812 C 876.640625 426.382812 883.589844 433.328125 883.589844 441.894531 L 883.589844 541.164062 C 883.589844 549.734375 876.640625 556.675781 868.070312 556.675781 L 793.570312 556.675781 C 784.996094 556.675781 778.050781 549.734375 778.050781 541.164062 Z M 793.570312 432.589844 C 788.425781 432.589844 784.257812 436.753906 784.257812 441.894531 L 784.257812 541.164062 C 784.257812 546.304688 788.425781 550.472656 793.570312 550.472656 L 868.070312 550.472656 C 873.210938 550.472656 877.382812 546.304688 877.382812 541.164062 L 877.382812 441.894531 C 877.382812 436.753906 873.210938 432.589844 868.070312 432.589844 Z M 793.570312 432.589844 " fill-opacity="1" fill-rule="evenodd"/></g><path fill="#ffffff" d="M 849.445312 451.203125 C 846.015625 451.203125 843.238281 453.980469 843.238281 457.40625 C 843.238281 460.832031 846.015625 463.609375 849.445312 463.609375 C 852.875 463.609375 855.652344 460.832031 855.652344 457.40625 C 855.652344 453.980469 852.875 451.203125 849.445312 451.203125 Z M 837.027344 457.40625 C 837.027344 450.554688 842.585938 444.996094 849.445312 444.996094 C 856.300781 444.996094 861.863281 450.554688 861.863281 457.40625 C 861.863281 464.257812 856.300781 469.816406 849.445312 469.816406 C 842.585938 469.816406 837.027344 464.257812 837.027344 457.40625 Z M 837.027344 457.40625 " fill-opacity="1" fill-rule="evenodd"/><path fill="#ffffff" d="M 833.925781 479.902344 C 833.925781 471.335938 840.871094 464.390625 849.445312 464.390625 C 858.015625 464.390625 864.964844 471.335938 864.964844 479.902344 C 864.964844 481.613281 863.574219 483.003906 861.863281 483.003906 L 837.027344 483.003906 C 835.3125 483.003906 833.925781 481.613281 833.925781 479.902344 Z M 840.664062 476.800781 L 858.226562 476.800781 C 856.949219 473.183594 853.5 470.59375 849.445312 470.59375 C 845.390625 470.59375 841.941406 473.183594 840.664062 476.800781 Z M 840.664062 476.800781 " fill-opacity="1" fill-rule="evenodd"/><path fill="#ffffff" d="M 796.675781 497.734375 C 796.675781 496.023438 798.0625 494.632812 799.777344 494.632812 L 861.863281 494.632812 C 863.574219 494.632812 864.964844 496.023438 864.964844 497.734375 C 864.964844 499.449219 863.574219 500.835938 861.863281 500.835938 L 799.777344 500.835938 C 798.0625 500.835938 796.675781 499.449219 796.675781 497.734375 Z M 796.675781 497.734375 " fill-opacity="1" fill-rule="evenodd"/><path fill="#ffffff" d="M 796.675781 516.347656 C 796.675781 514.636719 798.0625 513.246094 799.777344 513.246094 L 861.863281 513.246094 C 863.574219 513.246094 864.964844 514.636719 864.964844 516.347656 C 864.964844 518.0625 863.574219 519.449219 861.863281 519.449219 L 799.777344 519.449219 C 798.0625 519.449219 796.675781 518.0625 796.675781 516.347656 Z M 796.675781 516.347656 " fill-opacity="1" fill-rule="evenodd"/><path fill="#ffffff" d="M 796.675781 534.960938 C 796.675781 533.25 798.0625 531.859375 799.777344 531.859375 L 830.820312 531.859375 C 832.535156 531.859375 833.925781 533.25 833.925781 534.960938 C 833.925781 536.675781 832.535156 538.0625 830.820312 538.0625 L 799.777344 538.0625 C 798.0625 538.0625 796.675781 536.675781 796.675781 534.960938 Z M 796.675781 534.960938 " fill-opacity="1" fill-rule="evenodd"/></svg>