<svg xmlns="http://www.w3.org/2000/svg" xmlns:xlink="http://www.w3.org/1999/xlink" zoomAndPan="magnify" preserveAspectRatio="xMidYMid meet" version="1.0" viewBox="747.14 404.12 173.86 136.5"><defs><clipPath id="170ced2ccc"><path d="M 747.136719 404.117188 L 921 404.117188 L 921 540.617188 L 747.136719 540.617188 Z M 747.136719 404.117188 " clip-rule="nonzero"/></clipPath></defs><path fill="#fefefe" d="M 813.582031 479.667969 C 816.277344 482.019531 819.480469 483.867188 823.523438 485.210938 C 827.398438 486.550781 831.777344 487.054688 836.664062 487.054688 C 839.867188 487.054688 842.898438 486.71875 845.59375 486.21875 C 848.289062 485.714844 850.816406 484.707031 853.007812 483.699219 C 855.199219 482.523438 857.21875 481.179688 858.734375 479.5 C 860.421875 477.820312 861.769531 475.976562 862.78125 473.792969 L 856.378906 473.792969 C 854.691406 475.976562 852.503906 477.652344 849.976562 478.996094 C 847.449219 480.171875 844.246094 481.011719 840.707031 481.515625 C 836.160156 482.019531 831.945312 481.851562 828.242188 481.011719 C 824.535156 480.171875 821.5 478.828125 818.804688 476.984375 C 816.277344 475.136719 814.257812 472.785156 812.90625 469.929688 C 811.558594 467.078125 810.886719 464.054688 810.886719 460.695312 C 810.886719 458.179688 811.222656 455.660156 811.898438 453.140625 C 812.570312 450.621094 813.414062 448.441406 814.59375 446.425781 C 815.941406 444.074219 817.625 442.226562 819.648438 440.550781 C 821.667969 439.039062 824.027344 437.863281 826.722656 437.023438 C 829.417969 436.183594 832.453125 435.847656 835.652344 435.847656 C 838.855469 435.847656 841.71875 436.351562 844.246094 437.191406 C 846.773438 438.03125 848.796875 439.207031 850.480469 440.71875 C 852.164062 442.226562 853.511719 444.074219 854.355469 446.089844 C 855.199219 448.105469 855.703125 450.453125 855.703125 452.804688 C 855.703125 455.660156 855.03125 458.347656 853.851562 460.695312 C 852.671875 463.046875 851.15625 465.0625 849.46875 466.40625 C 847.785156 467.75 846.4375 468.417969 845.257812 468.417969 C 844.921875 468.417969 844.75 468.25 844.414062 468.085938 C 844.246094 467.75 844.078125 467.414062 844.078125 467.078125 C 844.078125 466.574219 844.246094 465.734375 844.414062 464.390625 L 848.964844 443.066406 L 841.046875 443.066406 L 840.371094 446.425781 C 838.6875 443.738281 836.160156 442.394531 832.453125 442.394531 C 829.417969 442.394531 826.554688 443.402344 824.027344 445.25 C 821.5 447.097656 819.648438 449.617188 818.300781 452.636719 C 816.953125 455.660156 816.277344 458.683594 816.277344 461.871094 C 816.277344 464.894531 816.953125 467.414062 818.300781 469.425781 C 819.648438 471.441406 821.332031 472.953125 823.355469 473.792969 C 825.375 474.632812 827.566406 474.800781 829.925781 474.464844 C 832.117188 473.960938 834.136719 472.953125 835.820312 471.273438 C 836.160156 472.449219 836.664062 473.289062 837.675781 473.792969 C 838.519531 474.296875 839.867188 474.632812 841.382812 474.632812 C 844.078125 474.632812 846.773438 474.128906 849.132812 472.953125 C 851.492188 471.777344 853.683594 470.097656 855.367188 468.085938 C 857.21875 466.070312 858.566406 463.71875 859.410156 461.199219 C 860.421875 458.683594 860.757812 455.996094 860.757812 453.476562 C 860.757812 450.117188 860.253906 446.929688 859.074219 444.242188 C 857.894531 441.386719 856.207031 439.039062 854.019531 437.023438 C 851.828125 435.007812 849.132812 433.328125 845.929688 432.320312 C 842.730469 431.148438 839.359375 430.644531 835.652344 430.644531 C 831.105469 430.644531 826.890625 431.484375 823.015625 432.992188 C 819.140625 434.503906 815.941406 436.6875 813.246094 439.375 C 810.550781 442.058594 808.527344 445.25 807.179688 448.945312 C 805.832031 452.636719 804.988281 456.5 804.988281 460.695312 C 804.988281 464.726562 805.664062 468.417969 807.011719 471.777344 C 808.863281 474.464844 810.886719 477.320312 813.582031 479.667969 Z M 837.84375 461.03125 C 837.171875 463.214844 835.992188 465.230469 834.644531 466.574219 C 833.292969 468.085938 831.609375 468.753906 829.757812 468.753906 C 828.070312 468.753906 826.890625 468.085938 825.882812 466.910156 C 824.871094 465.566406 824.363281 463.886719 824.363281 461.535156 C 824.363281 459.183594 824.703125 457.003906 825.542969 454.820312 C 826.386719 452.636719 827.398438 450.957031 828.746094 449.617188 C 830.09375 448.273438 831.777344 447.601562 833.464844 447.601562 C 834.304688 447.601562 835.148438 447.769531 835.820312 448.105469 C 836.496094 448.441406 837.171875 448.945312 837.507812 449.617188 C 838.011719 450.285156 838.347656 450.957031 838.6875 451.796875 C 838.855469 452.636719 839.023438 453.644531 839.023438 454.652344 C 839.023438 456.667969 838.6875 458.851562 837.84375 461.03125 Z M 837.84375 461.03125 " fill-opacity="1" fill-rule="nonzero"/><g clip-path="url(#170ced2ccc)"><path fill="#fefefe" d="M 905.070312 443.234375 C 903.722656 442.5625 902.542969 441.890625 901.363281 441.21875 L 835.484375 404.617188 C 834.8125 404.117188 833.800781 404.117188 832.957031 404.617188 L 766.910156 441.21875 C 765.730469 441.890625 764.550781 442.5625 763.203125 443.234375 C 754.949219 447.601562 747.367188 451.460938 747.367188 461.535156 L 747.367188 519.964844 C 747.367188 525.671875 749.726562 530.878906 753.433594 534.570312 C 757.140625 538.265625 762.363281 540.617188 768.089844 540.617188 L 900.183594 540.617188 C 905.914062 540.617188 911.136719 538.265625 914.84375 534.570312 C 918.546875 530.878906 920.90625 525.671875 920.90625 519.964844 L 920.90625 461.535156 C 920.90625 451.460938 913.324219 447.433594 905.070312 443.234375 Z M 765.5625 447.601562 C 766.742188 446.929688 767.921875 446.425781 769.269531 445.585938 L 834.136719 409.824219 L 898.835938 445.585938 C 900.183594 446.257812 901.363281 446.929688 902.542969 447.601562 C 908.945312 450.957031 914.84375 453.980469 915.515625 460.023438 L 867.328125 488.566406 L 834.136719 508.042969 L 800.945312 488.566406 L 752.589844 460.191406 C 753.433594 454.148438 759.328125 450.957031 765.5625 447.601562 Z M 752.589844 466.070312 L 794.710938 490.75 L 752.589844 515.429688 Z M 911.136719 530.878906 C 908.269531 533.730469 904.394531 535.410156 900.183594 535.410156 L 768.089844 535.410156 C 763.878906 535.410156 759.835938 533.730469 757.140625 530.878906 C 754.613281 528.359375 752.925781 525 752.589844 521.308594 L 799.765625 493.605469 L 832.957031 513.082031 C 833.800781 513.585938 834.8125 513.585938 835.652344 513.082031 L 868.84375 493.605469 L 916.023438 521.308594 C 915.347656 525 913.664062 528.359375 911.136719 530.878906 Z M 915.683594 515.429688 L 873.5625 490.75 L 915.683594 466.070312 Z M 915.683594 515.429688 " fill-opacity="1" fill-rule="nonzero"/></g></svg>