<svg xmlns="http://www.w3.org/2000/svg" xmlns:xlink="http://www.w3.org/1999/xlink" zoomAndPan="magnify" preserveAspectRatio="xMidYMid meet" version="1.0" viewBox="772.78 430.68 122.25 122.25"><defs><clipPath id="3ba16941bd"><path d="M 803 430.675781 L 865 430.675781 L 865 526 L 803 526 Z M 803 430.675781 " clip-rule="nonzero"/></clipPath><clipPath id="f3c406e01b"><path d="M 772.78125 506 L 895.03125 506 L 895.03125 552.925781 L 772.78125 552.925781 Z M 772.78125 506 " clip-rule="nonzero"/></clipPath></defs><g clip-path="url(#3ba16941bd)"><path fill="#f9f8f9" d="M 839.289062 506.53125 L 839.289062 436.0625 C 839.289062 434.636719 838.738281 433.265625 837.71875 432.25 C 836.699219 431.257812 835.332031 430.675781 833.90625 430.675781 C 832.480469 430.675781 831.109375 431.257812 830.09375 432.25 C 829.074219 433.265625 828.519531 434.636719 828.519531 436.0625 L 828.519531 506.53125 C 828.519531 506.53125 818.246094 496.253906 812.511719 490.519531 C 811.492188 489.5 810.125 488.949219 808.699219 488.949219 C 807.273438 488.949219 805.902344 489.5 804.886719 490.519531 C 802.789062 492.617188 802.789062 496.023438 804.886719 498.117188 L 830.296875 523.527344 C 831.257812 524.488281 832.539062 525.011719 833.90625 525.011719 C 835.273438 525.011719 836.554688 524.488281 837.515625 523.527344 L 862.925781 498.117188 C 865.019531 496.023438 865.019531 492.617188 862.925781 490.519531 C 861.90625 489.5 860.539062 488.949219 859.113281 488.949219 C 857.6875 488.949219 856.316406 489.5 855.300781 490.519531 C 849.535156 496.253906 839.289062 506.53125 839.289062 506.53125 Z M 839.289062 506.53125 " fill-opacity="1" fill-rule="evenodd"/></g><g clip-path="url(#f3c406e01b)"><path fill="#f9f8f9" d="M 772.78125 542.738281 C 772.78125 545.445312 773.855469 548.035156 775.777344 549.929688 C 777.699219 551.847656 780.289062 552.925781 782.96875 552.925781 L 884.84375 552.925781 C 887.550781 552.925781 890.140625 551.847656 892.03125 549.929688 C 893.953125 548.007812 895.03125 545.417969 895.03125 542.738281 L 895.03125 511.914062 C 895.03125 508.945312 892.613281 506.53125 889.644531 506.53125 C 888.21875 506.53125 886.851562 507.113281 885.832031 508.101562 C 884.8125 509.121094 884.261719 510.488281 884.261719 511.914062 L 884.261719 537.09375 C 884.261719 539.914062 881.992188 542.1875 879.167969 542.1875 L 788.644531 542.1875 C 785.820312 542.1875 783.550781 539.914062 783.550781 537.09375 L 783.550781 511.914062 C 783.550781 510.488281 782.96875 509.121094 781.976562 508.101562 C 780.960938 507.082031 779.589844 506.53125 778.164062 506.53125 C 775.195312 506.53125 772.78125 508.945312 772.78125 511.914062 Z M 772.78125 542.738281 " fill-opacity="1" fill-rule="evenodd"/></g></svg>