<svg xmlns="http://www.w3.org/2000/svg" xmlns:xlink="http://www.w3.org/1999/xlink" zoomAndPan="magnify" preserveAspectRatio="xMidYMid meet" version="1.0" viewBox="799 437.5 69.75 69.75"><defs><clipPath id="1842bbafe6"><path d="M 799 437.5 L 868.75 437.5 L 868.75 507.25 L 799 507.25 Z M 799 437.5 " clip-rule="nonzero"/></clipPath></defs><g clip-path="url(#1842bbafe6)"><path fill="#fdfdfd" d="M 833.871094 437.496094 C 853.132812 437.496094 868.75 453.113281 868.75 472.375 C 868.75 491.632812 853.132812 507.25 833.871094 507.25 C 814.613281 507.25 798.996094 491.632812 798.996094 472.375 C 798.996094 453.113281 814.613281 437.496094 833.871094 437.496094 Z M 819.5 487.378906 L 824.417969 487.378906 L 824.417969 467.90625 L 819.5 467.90625 Z M 834.847656 477.117188 C 834.847656 474.046875 836.296875 471.585938 839.628906 471.585938 C 842.921875 471.585938 843.988281 474.238281 843.988281 477.117188 L 843.988281 487.382812 L 848.871094 487.382812 L 848.871094 474.835938 C 848.871094 470.378906 846.714844 467.265625 842.007812 467.265625 C 839.871094 467.265625 837.402344 468.382812 836.359375 470.328125 L 834.847656 473.082031 L 834.847656 467.90625 L 830.199219 467.90625 L 830.199219 487.378906 L 834.847656 487.378906 Z M 836.457031 477.117188 L 836.457031 488.988281 L 828.589844 488.988281 L 828.589844 466.296875 L 836.457031 466.296875 L 836.457031 467.746094 C 838.011719 466.355469 839.921875 465.65625 842.007812 465.65625 C 847.601562 465.65625 850.480469 469.488281 850.480469 474.835938 L 850.480469 488.984375 L 842.378906 488.988281 L 842.378906 477.117188 C 842.378906 475.183594 841.949219 473.195312 839.628906 473.195312 C 837.210938 473.195312 836.457031 474.953125 836.457031 477.117188 Z M 821.929688 463.539062 C 823.632812 463.539062 824.980469 462.144531 824.980469 460.449219 C 824.980469 458.753906 823.632812 457.367188 821.929688 457.367188 C 820.222656 457.367188 818.875 458.753906 818.875 460.449219 C 818.875 462.144531 820.222656 463.539062 821.929688 463.539062 Z M 821.929688 465.148438 C 819.34375 465.148438 817.265625 463.027344 817.265625 460.449219 C 817.265625 457.875 819.34375 455.757812 821.929688 455.757812 C 824.511719 455.757812 826.589844 457.875 826.589844 460.449219 C 826.589844 463.027344 824.511719 465.148438 821.929688 465.148438 Z M 817.890625 488.988281 L 817.890625 466.296875 L 826.027344 466.296875 L 826.027344 488.988281 Z M 833.871094 439.109375 C 815.5 439.109375 800.605469 454 800.605469 472.375 C 800.605469 490.746094 815.5 505.636719 833.871094 505.636719 C 852.246094 505.636719 867.140625 490.746094 867.140625 472.375 C 867.140625 454 852.246094 439.109375 833.871094 439.109375 Z M 833.871094 439.109375 " fill-opacity="1" fill-rule="nonzero"/></g></svg>