<svg xmlns="http://www.w3.org/2000/svg" xmlns:xlink="http://www.w3.org/1999/xlink" zoomAndPan="magnify" preserveAspectRatio="xMidYMid meet" version="1.0" viewBox="798.87 437.5 70.5 69.75"><defs><clipPath id="087cce7af3"><path d="M 798.871094 437.5 L 869.371094 437.5 L 869.371094 507.25 L 798.871094 507.25 Z M 798.871094 437.5 " clip-rule="nonzero"/></clipPath></defs><g clip-path="url(#087cce7af3)"><path fill="#fcf5eb" d="M 834.136719 437.519531 C 814.65625 437.519531 798.871094 453.195312 798.871094 472.539062 C 798.871094 489.914062 811.632812 504.34375 828.335938 507.074219 L 828.335938 483.332031 L 819.359375 483.332031 L 819.359375 472.933594 L 828.335938 472.933594 L 828.335938 465.382812 C 828.335938 457.199219 835.019531 451.648438 843.265625 451.648438 C 846.929688 451.648438 849.21875 452.195312 849.21875 452.195312 L 849.21875 460.925781 L 843.265625 460.925781 C 840.792969 460.925781 838.777344 462.929688 838.777344 465.382812 L 838.777344 472.933594 L 848.394531 472.933594 L 847.050781 483.332031 L 838.777344 483.332031 L 838.777344 507.226562 C 856.027344 504.949219 869.339844 490.277344 869.339844 472.539062 C 869.371094 453.195312 853.585938 437.519531 834.136719 437.519531 Z M 834.136719 437.519531 " fill-opacity="1" fill-rule="nonzero"/></g></svg>