<svg xmlns="http://www.w3.org/2000/svg" xmlns:xlink="http://www.w3.org/1999/xlink" zoomAndPan="magnify" preserveAspectRatio="xMidYMid meet" version="1.0" viewBox="799 437.5 69.75 69.75"><defs><clipPath id="67ba2bba0e"><path d="M 799 437.5 L 868.75 437.5 L 868.75 507.25 L 799 507.25 Z M 799 437.5 " clip-rule="nonzero"/></clipPath></defs><g clip-path="url(#67ba2bba0e)"><path fill="#fcf5eb" d="M 833.859375 443.785156 C 843.164062 443.785156 844.265625 443.816406 847.949219 443.984375 C 851.339844 444.136719 853.191406 444.703125 854.429688 445.191406 C 856.046875 445.820312 857.210938 446.582031 858.433594 447.804688 C 859.65625 449.027344 860.402344 450.191406 861.046875 451.808594 C 861.519531 453.03125 862.085938 454.882812 862.253906 458.289062 C 862.421875 461.972656 862.453125 463.074219 862.453125 472.378906 C 862.453125 481.6875 862.421875 482.789062 862.253906 486.472656 C 862.101562 489.863281 861.535156 491.714844 861.046875 492.953125 C 860.417969 494.570312 859.65625 495.734375 858.433594 496.957031 C 857.210938 498.179688 856.046875 498.925781 854.429688 499.570312 C 853.207031 500.042969 851.355469 500.609375 847.949219 500.777344 C 844.265625 500.945312 843.164062 500.972656 833.859375 500.972656 C 824.550781 500.972656 823.449219 500.945312 819.765625 500.777344 C 816.375 500.625 814.523438 500.058594 813.289062 499.570312 C 811.667969 498.941406 810.507812 498.179688 809.285156 496.957031 C 808.0625 495.734375 807.3125 494.570312 806.671875 492.953125 C 806.195312 491.730469 805.628906 489.878906 805.460938 486.472656 C 805.292969 482.789062 805.265625 481.6875 805.265625 472.378906 C 805.265625 463.074219 805.292969 461.972656 805.460938 458.289062 C 805.617188 454.898438 806.179688 453.046875 806.671875 451.808594 C 807.296875 450.191406 808.0625 449.027344 809.285156 447.804688 C 810.507812 446.582031 811.667969 445.835938 813.289062 445.191406 C 814.511719 444.71875 816.359375 444.152344 819.765625 443.984375 C 823.449219 443.816406 824.550781 443.785156 833.859375 443.785156 M 833.859375 437.503906 C 824.382812 437.503906 823.207031 437.550781 819.476562 437.71875 C 815.761719 437.886719 813.226562 438.484375 811.011719 439.339844 C 808.71875 440.226562 806.777344 441.417969 804.835938 443.359375 C 802.910156 445.300781 801.71875 447.242188 800.832031 449.535156 C 799.976562 451.75 799.378906 454.285156 799.210938 458 C 799.042969 461.714844 799 462.90625 799 472.367188 C 799 481.839844 799.042969 483.015625 799.210938 486.746094 C 799.378906 490.460938 799.976562 492.996094 800.832031 495.214844 C 801.71875 497.503906 802.910156 499.445312 804.851562 501.386719 C 806.792969 503.328125 808.734375 504.519531 811.027344 505.40625 C 813.242188 506.261719 815.777344 506.859375 819.492188 507.027344 C 823.207031 507.195312 824.398438 507.242188 833.875 507.242188 C 843.347656 507.242188 844.523438 507.195312 848.253906 507.027344 C 851.96875 506.859375 854.503906 506.261719 856.71875 505.40625 C 859.011719 504.519531 860.953125 503.328125 862.894531 501.386719 C 864.835938 499.445312 866.027344 497.503906 866.914062 495.214844 C 867.769531 492.996094 868.367188 490.460938 868.535156 486.746094 C 868.703125 483.03125 868.75 481.839844 868.75 472.367188 C 868.75 462.890625 868.703125 461.714844 868.535156 457.984375 C 868.367188 454.269531 867.769531 451.734375 866.914062 449.519531 C 866.027344 447.226562 864.835938 445.285156 862.894531 443.34375 C 860.953125 441.402344 859.011719 440.210938 856.71875 439.324219 C 854.503906 438.46875 851.96875 437.871094 848.253906 437.703125 C 844.523438 437.550781 843.332031 437.503906 833.859375 437.503906 " fill-opacity="1" fill-rule="nonzero"/></g><path fill="#fcf5eb" d="M 833.859375 454.46875 C 823.96875 454.46875 815.960938 462.476562 815.960938 472.367188 C 815.960938 482.253906 823.984375 490.277344 833.875 490.277344 C 843.761719 490.277344 851.785156 482.269531 851.785156 472.367188 C 851.769531 462.476562 843.746094 454.46875 833.859375 454.46875 M 833.859375 483.996094 C 827.4375 483.996094 822.242188 478.800781 822.242188 472.378906 C 822.242188 465.960938 827.4375 460.765625 833.859375 460.765625 C 840.277344 460.765625 845.472656 465.960938 845.472656 472.378906 C 845.488281 478.785156 840.277344 483.996094 833.859375 483.996094 " fill-opacity="1" fill-rule="nonzero"/><path fill="#fcf5eb" d="M 856.660156 453.765625 C 856.660156 456.074219 854.78125 457.953125 852.472656 457.953125 C 850.164062 457.953125 848.285156 456.074219 848.285156 453.765625 C 848.285156 451.457031 850.164062 449.578125 852.472656 449.578125 C 854.78125 449.578125 856.660156 451.445312 856.660156 453.765625 " fill-opacity="1" fill-rule="nonzero"/></svg>