<svg xmlns="http://www.w3.org/2000/svg" xmlns:xlink="http://www.w3.org/1999/xlink" zoomAndPan="magnify" preserveAspectRatio="xMidYMid meet" version="1.0" viewBox="759 359.27 105 32.25"><defs><clipPath id="3ffa81327e"><path d="M 759 359.269531 L 864 359.269531 L 864 391.519531 L 759 391.519531 Z M 759 359.269531 " clip-rule="nonzero"/></clipPath></defs><g clip-path="url(#3ffa81327e)"><path fill="#f4c01e" d="M 761.847656 391.515625 C 761.152344 391.515625 760.449219 391.261719 759.902344 390.75 C 758.769531 389.6875 758.722656 387.921875 759.796875 386.800781 L 770.628906 375.535156 L 759.796875 364.265625 C 758.722656 363.148438 758.769531 361.378906 759.902344 360.320312 C 761.035156 359.257812 762.828125 359.304688 763.902344 360.421875 L 776.578125 373.613281 C 777.613281 374.691406 777.613281 376.378906 776.578125 377.453125 L 763.902344 390.644531 C 763.347656 391.222656 762.597656 391.515625 761.847656 391.515625 Z M 785.472656 390.644531 L 798.148438 377.453125 C 799.183594 376.378906 799.183594 374.691406 798.148438 373.613281 L 785.472656 360.421875 C 784.394531 359.304688 782.605469 359.257812 781.472656 360.320312 C 780.339844 361.378906 780.292969 363.148438 781.367188 364.265625 L 792.199219 375.535156 L 781.367188 386.800781 C 780.292969 387.921875 780.339844 389.6875 781.472656 390.75 C 782.019531 391.261719 782.71875 391.515625 783.417969 391.515625 C 784.167969 391.515625 784.914062 391.222656 785.472656 390.644531 Z M 807.039062 390.644531 L 819.71875 377.453125 C 820.753906 376.378906 820.753906 374.691406 819.71875 373.613281 L 807.039062 360.421875 C 805.964844 359.304688 804.175781 359.257812 803.042969 360.320312 C 801.910156 361.378906 801.863281 363.148438 802.9375 364.265625 L 813.765625 375.535156 L 802.9375 386.800781 C 801.863281 387.921875 801.910156 389.6875 803.042969 390.75 C 803.589844 391.261719 804.289062 391.515625 804.988281 391.515625 C 805.738281 391.515625 806.484375 391.222656 807.039062 390.644531 Z M 828.609375 390.644531 L 841.285156 377.453125 C 842.320312 376.378906 842.320312 374.691406 841.285156 373.613281 L 828.609375 360.421875 C 827.535156 359.304688 825.746094 359.257812 824.613281 360.320312 C 823.476562 361.378906 823.429688 363.148438 824.503906 364.265625 L 835.335938 375.535156 L 824.503906 386.800781 C 823.429688 387.921875 823.476562 389.6875 824.613281 390.75 C 825.160156 391.261719 825.859375 391.515625 826.558594 391.515625 C 827.304688 391.515625 828.054688 391.222656 828.609375 390.644531 Z M 850.179688 390.644531 L 862.855469 377.453125 C 863.890625 376.378906 863.890625 374.691406 862.855469 373.613281 L 850.179688 360.421875 C 849.105469 359.304688 847.3125 359.257812 846.179688 360.320312 C 845.046875 361.378906 845 363.148438 846.074219 364.265625 L 856.90625 375.535156 L 846.074219 386.800781 C 845 387.921875 845.046875 389.6875 846.179688 390.75 C 846.726562 391.261719 847.425781 391.515625 848.125 391.515625 C 848.875 391.515625 849.625 391.222656 850.179688 390.644531 Z M 850.179688 390.644531 " fill-opacity="1" fill-rule="nonzero"/></g></svg>