<svg xmlns="http://www.w3.org/2000/svg" xmlns:xlink="http://www.w3.org/1999/xlink" zoomAndPan="magnify" preserveAspectRatio="xMidYMid meet" version="1.0" viewBox="-166.8 -101.86 2001.6 1141.36"><defs><filter x="0%" y="0%" width="100%" height="100%" id="b05e2a6d20"><feColorMatrix values="0 0 0 0 1 0 0 0 0 1 0 0 0 0 1 0 0 0 1 0" color-interpolation-filters="sRGB"/></filter><mask id="041b7cded7"><g filter="url(#b05e2a6d20)"><rect x="-166.8" width="2001.6" fill="#000000" y="-94.499999" height="1133.999992" fill-opacity="0.549"/></g></mask><clipPath id="03d4f536e0"><path d="M 93 5 L 1396 5 L 1396 945 L 93 945 Z M 93 5 " clip-rule="nonzero"/></clipPath><clipPath id="af42d9446b"><path d="M 1495.769531 791.066406 L 147.871094 1015.765625 L -0.984375 122.835938 L 1346.914062 -101.863281 Z M 1495.769531 791.066406 " clip-rule="nonzero"/></clipPath><clipPath id="374edfaea3"><path d="M 1495.769531 791.066406 L 147.871094 1015.765625 L -0.984375 122.835938 L 1346.914062 -101.863281 Z M 1495.769531 791.066406 " clip-rule="nonzero"/></clipPath><clipPath id="0021164587"><rect x="0" width="1493" y="0" height="945"/></clipPath></defs><g mask="url(#041b7cded7)"><g transform="matrix(1, 0, 0, 1, 145, -0.000000000000049249)"><g clip-path="url(#0021164587)"><g clip-path="url(#03d4f536e0)"><g clip-path="url(#af42d9446b)"><g clip-path="url(#374edfaea3)"><path fill="#f8c44c" d="M 1166.984375 450.476562 C 1142.976562 454.78125 1118.621094 457.03125 1094.222656 457.179688 C 1056.617188 457.71875 1019.355469 463.929688 983.558594 475.324219 C 950.699219 486.230469 920.527344 502.417969 891.285156 520.5625 C 869.964844 533.765625 857.886719 553.566406 851.480469 576.648438 C 843.414062 606.035156 836.566406 635.523438 830.0625 665.253906 C 824 692.195312 820.433594 719.628906 810.554688 745.398438 C 797.304688 781.679688 774.957031 814.050781 745.714844 839.433594 C 724.050781 857.820312 703.074219 876.695312 681.460938 895.375 C 665.910156 908.820312 647.523438 917.917969 628.550781 925.300781 C 582.09375 943.300781 534.5625 951.222656 484.488281 945.699219 C 425.515625 939.246094 367.222656 927.855469 309.910156 911.480469 C 267.464844 899.257812 229.714844 877.203125 193.820312 851.828125 C 174.0625 838.234375 156.019531 822.246094 140.320312 804.058594 C 122.714844 783.472656 109.902344 759.074219 103.691406 732.667969 C 96.84375 704.257812 91.21875 675.945312 95.082031 646.65625 C 102.464844 589.640625 125.984375 540.789062 173.027344 506.414062 C 190.730469 493.210938 211.023438 482.890625 231.121094 473.207031 C 275.472656 451.640625 315.960938 423.183594 351.21875 388.660156 C 377.96875 362.789062 398.457031 331.933594 418.210938 300.296875 C 439.578125 265.675781 459.96875 230.613281 483.050781 197.214844 C 516.351562 149.148438 554.148438 104.550781 600.261719 68.21875 C 626.667969 47.53125 654.394531 29.339844 686.035156 18.335938 C 741.046875 -0.785156 795.179688 0.140625 847.015625 28.890625 C 876.210938 44.832031 904.425781 62.140625 933.082031 78.472656 C 958.804688 93.480469 984.476562 108.199219 1013.332031 116.65625 C 1045.800781 126.921875 1080.421875 128.390625 1113.625 121.347656 C 1138.613281 115.671875 1163.40625 108.824219 1188.003906 102.613281 C 1215.535156 95.914062 1243.410156 91.269531 1272.015625 92.832031 C 1322.773438 95.226562 1357.300781 121.433594 1378.914062 166.074219 C 1398.425781 207.148438 1399.261719 250.128906 1389.921875 293.601562 C 1385.324219 314.871094 1377.257812 335.214844 1366.15625 353.648438 C 1350.753906 378.832031 1328.210938 395.558594 1302.390625 408.90625 C 1273.785156 423.628906 1243.320312 432.625 1212.269531 439.914062 Z M 1166.984375 450.476562 " fill-opacity="1" fill-rule="nonzero"/></g></g></g></g></g></g></svg>